<svg width="34" height="34" viewBox="0 0 34 34" fill="none" xmlns="http://www.w3.org/2000/svg">
<path d="M11.3089 24.7843L10.4683 24.5132C9.96806 24.3518 9.71335 23.7736 9.91611 23.2706C10.5799 21.6238 11.121 20.1526 11.5879 18.6968C11.2197 18.6777 10.8419 18.6561 10.453 18.632C10.0245 18.6055 9.67688 18.2587 9.63207 17.8139L9.52874 16.7884C9.4713 16.2183 9.92515 15.7338 10.4739 15.7745C11.1467 15.8243 11.7864 15.8668 12.4002 15.9017C12.866 14.12 13.2709 12.217 13.696 9.92466C13.8004 9.36183 14.3669 9.03043 14.8806 9.23579L15.8046 9.60522C16.2053 9.76543 16.4368 10.2051 16.3505 10.6431C15.9509 12.6717 15.5672 14.3913 15.142 16.0086C16.451 16.0323 17.6795 16.0099 18.9263 15.9369C18.5086 14.3405 18.1303 12.6417 17.7366 10.6431C17.6503 10.2051 17.8818 9.76543 18.2825 9.60522L19.2065 9.23579C19.7202 9.03043 20.2867 9.36183 20.3911 9.92466C20.8005 12.1324 21.1912 13.9791 21.6356 15.704C22.3356 15.6261 23.0603 15.5331 23.8243 15.4243C24.3431 15.3504 24.8132 15.7565 24.8333 16.3017L24.8671 17.2179C24.8845 17.6916 24.5511 18.1018 24.0997 18.161C23.5088 18.2386 22.943 18.309 22.3962 18.3722C22.8863 19.9347 23.4579 21.5013 24.171 23.2706C24.3738 23.7736 24.119 24.3518 23.6188 24.5132L22.7782 24.7843C22.3436 24.9245 21.877 24.6951 21.7053 24.2561C20.89 22.1727 20.2486 20.3972 19.6996 18.6369C17.899 18.7775 16.2076 18.8284 14.3377 18.7958C13.7998 20.5043 13.1726 22.2354 12.3818 24.2561C12.2101 24.6951 11.7435 24.9245 11.3089 24.7843Z" fill="white"/>
<path d="M31.1914 16.1365C34.2873 25.1334 26.932 31.752 22.8674 33.9367C29.2929 28.4998 26.7373 20.3072 26.5183 16.1365C26.3305 12.5615 29.585 12.4871 31.1914 16.1365Z" fill="#F0E035"/>
<path d="M5.54726 27.2933C-2.20152 21.9597 -0.17326 12.1714 1.80947 7.94391C-0.164345 16.2181 6.68022 21.2353 9.29662 24.4482C11.5392 27.2022 8.97167 29.2433 5.54726 27.2933Z" fill="#F0E035"/>
<path d="M3.96543 9.86733C6.47253 0.68162 16.2175 -0.454587 20.7766 0.125524C12.457 0.835076 9.95789 9.04576 7.7982 12.5943C5.94704 15.636 3.23602 13.7979 3.96543 9.86733Z" fill="#F0E035"/>
<path d="M21.8774 31.7425C14.1675 37.1344 5.9871 31.6145 2.86064 28.1806C9.68034 33.0926 16.7696 28.4423 20.6604 27.1404C23.9954 26.0245 24.9135 29.2101 21.8774 31.7425Z" fill="#F0E035"/>
<path d="M20.2354 2.57327C29.5834 2.53469 33.3068 11.7904 34 16.4231C31.0669 8.45031 22.641 8.23144 18.7056 7.0772C15.3324 6.08786 16.3288 2.92681 20.2354 2.57327Z" fill="#F0E035"/>
</svg>
