<svg width="64" height="62" viewBox="0 0 64 62" fill="none" xmlns="http://www.w3.org/2000/svg">
<g filter="url(#filter0_d_8417_554)">
<path d="M32.5349 40.2011H32.0349C28.0968 40.2011 24.8537 39.3014 22.4428 37.4739L22.4426 37.4738C20.7363 36.1789 19.4913 34.4766 18.6335 32.2946L18.6334 32.2944C18.1512 31.067 18.072 29.2995 18.3311 27.0963L18.3311 27.0963C18.5408 25.3159 18.9302 23.6074 19.1432 22.7497L19.1432 22.7495L19.2414 22.3548C19.167 22.1591 19.0977 21.9536 19.0334 21.7391C18.652 20.4747 18.7363 19.4354 19.0319 18.6154C19.3248 17.8029 19.8134 17.2372 20.1972 16.8901C20.1972 16.8901 20.1972 16.8901 20.1972 16.8901C20.1973 16.89 20.1974 16.8899 20.1975 16.8898L20.6377 16.491C21.0953 15.3589 21.941 14.7712 22.6969 14.4755L32.5349 40.2011ZM32.5349 40.2011V40.1939M32.5349 40.2011V40.1939M32.5349 40.1939C36.2487 40.1204 39.3188 39.22 41.6281 37.4705L41.6284 37.4703C43.3347 36.1754 44.5797 34.4731 45.4375 32.2911L45.4376 32.291C45.9198 31.0635 45.999 29.2949 45.7399 27.0928L45.7399 27.0928C45.5302 25.3124 45.1408 23.6039 44.9278 22.7462L44.9278 22.746L44.8296 22.3514C44.9039 22.1562 44.9732 21.9514 45.0376 21.7365C45.0376 21.7364 45.0377 21.7363 45.0377 21.7363L44.5587 21.5927M32.5349 40.1939L43.43 16.4865M44.5587 21.5927C45.2627 19.2604 44.2216 17.8762 43.5381 17.2584M44.5587 21.5927C44.4813 21.8513 44.397 22.0924 44.3059 22.3173L44.5587 21.5927ZM43.5381 17.2584L43.8735 16.8875L43.8735 16.8875L43.5381 17.2584ZM43.5381 17.2584L43.0073 16.7785M43.0073 16.7785L43.4758 16.6037C43.4611 16.5642 43.4458 16.5252 43.43 16.4865M43.0073 16.7785C42.6839 15.9113 42.0631 15.2807 41.1906 14.9388L36.0216 15.219C36.3598 15.3107 36.7243 15.4305 37.0887 15.5663C37.2704 15.3703 37.5031 15.1498 37.7834 14.9459L37.784 14.9455C38.4545 14.4592 39.1946 14.2 39.9775 14.2C40.4447 14.2 40.9142 14.2935 41.3729 14.4732L41.373 14.4732C42.3372 14.8511 43.0446 15.5449 43.43 16.4865M43.0073 16.7785L43.3427 16.4076L43.43 16.4865M26.2846 14.9454L26.2859 14.9464C26.5298 15.1243 26.7595 15.3288 26.9723 15.5569C27.3127 15.4336 27.6717 15.3207 28.0486 15.2189C29.3465 14.8665 30.6878 14.688 32.0349 14.688C33.3821 14.688 34.7234 14.8665 36.0214 15.2189L26.2846 14.9454ZM26.2846 14.9454C25.6151 14.4603 24.8751 14.2011 24.0924 14.2011C23.6243 14.2011 23.1549 14.2962 22.6971 14.4754L26.2846 14.9454Z" fill="#571801" stroke="white"/>
<path d="M43.6384 23.0753C42.996 24.0989 42.2385 24.3111 41.6098 24.3111C41.5152 24.3111 41.423 24.3064 41.3341 24.2983H41.3136C40.7395 24.2485 38.6813 23.2608 38.4307 19.2649C38.4216 19.127 38.6198 19.1015 38.6448 19.2371C38.8692 20.4172 39.2884 21.9775 40.0163 22.7241C40.596 23.5042 41.2248 23.7059 41.3615 23.7175H41.382C41.8683 23.7604 43.0085 23.8578 43.766 21.3469C44.3253 19.4933 43.561 18.4071 42.9869 17.8889C42.9869 19.0957 42.3661 19.3774 42.3832 19.2185C42.4675 18.4511 42.6885 16.4294 40.8933 15.7258C40.0698 15.4035 39.285 15.509 38.5594 16.0365C38.2496 16.2625 38.0161 16.5199 37.8657 16.71C38.3157 17.0044 38.515 17.7162 38.3692 17.6316C37.7234 17.2502 36.6162 16.7714 35.6765 16.5164C33.2936 15.8695 30.7752 15.8695 28.3912 16.5164C27.4526 16.7714 26.6484 17.0925 26.0026 17.4739C25.957 17.4994 25.908 17.5122 25.8602 17.5122C25.7976 17.5122 25.8488 17.0033 26.2042 16.7088C26.0538 16.5199 25.8192 16.2613 25.5094 16.0353C24.7827 15.5078 23.9979 15.4035 23.1755 15.7246C21.5797 16.3494 21.5763 18.0176 21.6537 18.916C21.6662 19.0667 21.0432 18.3051 21.0808 17.8877C20.5078 18.4059 19.7424 19.4921 20.3017 21.3457C21.0591 23.8578 22.1982 23.7604 22.6857 23.7175H22.7062C22.8429 23.7048 23.4716 23.5031 24.0514 22.7229C24.0514 22.7229 24.8396 21.8187 25.3738 19.4886C25.4069 19.3449 25.6187 19.3774 25.6062 19.5257C25.3078 22.9466 23.647 24.296 22.7552 24.296H22.7347C22.647 24.3053 22.5547 24.3099 22.459 24.3099C21.8314 24.3099 21.0739 24.0989 20.4304 23.0742C19.9884 24.8536 18.9758 29.5299 19.8666 31.7962C20.6365 33.7542 21.7391 35.26 23.2393 36.3984C25.3921 38.0306 28.3513 38.8583 32.035 38.8583C35.7186 38.8583 38.6767 38.0306 40.8295 36.3984C42.3285 35.26 43.4322 33.7553 44.2022 31.7962C45.093 29.5299 44.0804 24.8536 43.6384 23.0742V23.0753Z" fill="#FF8A4F"/>
<path d="M25.9066 17.5076C25.8269 17.7116 25.8235 17.8855 25.8611 17.8855C25.9089 17.8855 25.9579 17.8728 26.0034 17.8472C26.6493 17.4659 27.4523 17.1436 28.392 16.8897C30.776 16.2429 33.2945 16.2429 35.6774 16.8897C36.6159 17.1448 37.7242 17.6235 38.3701 18.0049C38.4532 18.0536 38.4224 17.838 38.2949 17.5899C37.6411 17.2166 36.5818 16.7634 35.6774 16.5176C33.2945 15.8708 30.776 15.8708 28.392 16.5176C27.4534 16.7726 26.6493 17.0937 26.0034 17.4751C25.9727 17.4925 25.9397 17.5018 25.9066 17.5076Z" fill="#FDA379"/>
<path d="M43.956 20.3025C44.0198 19.0726 43.4434 18.3017 42.9878 17.8901C43.0003 18.0246 43.006 18.1556 43.0083 18.2808C43.4127 18.6529 43.9013 19.3032 43.956 20.3025Z" fill="#FDA379"/>
<path d="M38.049 16.8665C38.1846 16.7193 38.3543 16.557 38.5582 16.4086C39.2849 15.8812 40.0697 15.7769 40.8921 16.098C42.1166 16.5779 42.4036 17.6711 42.4355 18.5613C42.4674 17.6293 42.2954 16.2753 40.8921 15.7259C40.0686 15.4036 39.2838 15.5091 38.5582 16.0365C38.2484 16.2626 38.0149 16.5199 37.8645 16.71C37.9317 16.7541 37.9932 16.8086 38.049 16.8665Z" fill="#FDA379"/>
<path d="M21.0612 18.2808C21.0635 18.1544 21.0692 18.0246 21.0817 17.8901C20.6261 18.3017 20.0497 19.0737 20.1135 20.3025C20.1682 19.3032 20.658 18.6529 21.0612 18.2808Z" fill="#FDA379"/>
<path d="M23.1752 16.0992C23.9987 15.7769 24.7835 15.8824 25.5091 16.4098C25.7221 16.5652 25.8987 16.7356 26.0388 16.8898C26.0843 16.826 26.139 16.7646 26.2039 16.7113C26.0536 16.5223 25.8189 16.2638 25.5091 16.0377C24.7824 15.5103 23.9976 15.406 23.1752 15.7271C21.7708 16.2765 21.5999 17.6328 21.6318 18.5637C21.6637 17.6746 21.9496 16.5803 23.1752 16.1003V16.0992Z" fill="#FDA379"/>
<path d="M28.7202 29.6169C28.7202 29.6169 28.3899 32.5243 32.0337 32.5243C35.6775 32.5243 35.362 29.6169 35.362 29.6169H28.7202Z" fill="#E75C2A"/>
<path d="M20.1034 24.5129C21.0534 25.5353 22.4191 25.5782 23.1117 25.3707C25.6381 24.6149 25.6062 19.5259 25.6062 19.5259C25.5458 20.2121 25.4307 20.8138 25.2781 21.3389V21.3436L25.2758 21.3459C24.6676 23.4337 23.467 24.2961 22.754 24.2961H22.7335C22.6458 24.3054 22.5535 24.31 22.4578 24.31C21.8302 24.31 21.0728 24.0991 20.4292 23.0743C20.3369 23.4441 20.2208 23.9391 20.1023 24.5117H20.1034V24.5129Z" fill="#E75C2A"/>
<path d="M44.0108 24.733C43.8764 24.0676 43.742 23.4915 43.6383 23.0753C42.9959 24.0989 42.2384 24.311 41.6097 24.311C41.5152 24.311 41.4229 24.3064 41.334 24.2983H41.3135C40.7395 24.2484 38.6812 23.2608 38.4306 19.2649C38.4306 19.2649 38.1926 24.2925 40.8283 25.1909C42.3262 25.7009 43.3718 25.1573 44.0097 24.733H44.0108Z" fill="#E75C2A"/>
<path d="M44.5553 29.5359C44.5553 29.5359 42.9345 37.5137 32.0338 37.5137C21.1331 37.5137 19.5134 29.5359 19.5134 29.5359C19.5248 30.396 19.6262 31.1855 19.8665 31.7987C20.6365 33.7567 21.7391 35.2625 23.2392 36.4009C25.392 38.0331 28.3513 38.8608 32.0349 38.8608C35.7186 38.8608 38.6767 38.0331 40.8295 36.4009C42.3285 35.2625 43.4322 33.7578 44.2022 31.7987C44.4426 31.1855 44.5439 30.396 44.5553 29.5359Z" fill="#E75C2A"/>
<path d="M32.1807 33.5387C33.3095 34.0881 34.8893 33.6627 35.632 32.5974C35.7687 32.3644 36.1229 31.9725 35.7687 31.8091C35.4816 31.7036 35.288 32.0583 35.0967 32.2055C35.0363 32.2554 34.911 32.3667 34.8529 32.4119C34.3836 32.7724 33.8448 32.9857 33.256 33.0402C33.0509 33.0564 32.822 33.0634 32.6181 33.0518C32.5953 33.0495 32.3903 33.039 32.3686 33.0379C32.0645 33.0193 31.9199 33.4135 32.1807 33.5387Z" fill="#571801"/>
<path d="M27.0424 22.1029C24.8896 21.9186 23.0057 23.2343 22.2892 25.1354C22.2459 25.2502 22.107 25.2919 22.009 25.2189L19.519 23.3723C19.3379 23.2366 19.1238 23.1995 18.9199 23.2656C18.6693 23.3468 18.4677 23.574 18.3641 23.8893L18.0178 24.9384C17.9677 25.0902 18.0485 25.2549 18.1978 25.3059C18.347 25.3569 18.5087 25.2746 18.5588 25.1239L18.904 24.0759C18.9564 23.9159 19.0372 23.8371 19.0908 23.8197C19.1124 23.8139 19.1386 23.8104 19.1819 23.8429L21.9646 25.9063C22.0215 25.9481 22.0489 26.0188 22.0375 26.0883C21.9999 26.3306 21.9794 26.5787 21.9794 26.8302C21.9794 29.4466 24.0707 31.575 26.6415 31.575C29.2123 31.575 31.4893 29.2519 31.2911 26.4767C31.1259 24.1686 29.308 22.2965 27.0424 22.1029ZM26.6426 30.9942C24.3873 30.9942 22.5512 29.1267 22.5512 26.8302C22.5512 24.5338 24.3862 22.6663 26.6426 22.6663C28.8991 22.6663 30.7341 24.5338 30.7341 26.8302C30.7341 29.1267 28.8991 30.9942 26.6426 30.9942Z" fill="#571801"/>
<path d="M45.9858 24.9382L45.6407 23.8903C45.537 23.5738 45.3343 23.3478 45.086 23.2666C44.8809 23.2005 44.6668 23.2376 44.4857 23.3733L42.047 25.1828C41.9502 25.2547 41.8112 25.2153 41.7679 25.1005C41.0275 23.182 39.0946 21.8709 36.9019 22.1155C34.7218 22.3589 32.9859 24.1627 32.7854 26.3861C32.52 29.3375 34.9291 31.8044 37.8245 31.5586C39.9728 31.3766 41.7349 29.6795 42.0424 27.5071C42.1142 27.004 42.1039 26.5159 42.0253 26.0476C42.014 25.9769 42.0413 25.905 42.0982 25.8633L44.8228 23.8428C44.8661 23.8103 44.8935 23.8138 44.914 23.8196C44.9675 23.837 45.0484 23.9146 45.1008 24.0758L45.4459 25.1237C45.496 25.2744 45.6566 25.3579 45.8081 25.3057C45.9573 25.2547 46.0382 25.0913 45.9869 24.9382H45.9858ZM37.4259 30.9941C35.1706 30.9941 33.3344 29.1265 33.3344 26.8301C33.3344 24.5337 35.1694 22.6661 37.4259 22.6661C39.6823 22.6661 41.5185 24.5337 41.5185 26.8301C41.5185 29.1265 39.6835 30.9941 37.4259 30.9941Z" fill="#571801"/>
<path d="M33.3221 32.0351C32.8904 32.0351 32.4644 31.9053 32.1523 31.6793C32.1193 31.6549 32.0805 31.6422 32.0407 31.6422C32.0122 31.6422 31.9701 31.648 31.929 31.6781C31.6158 31.9053 31.1898 32.034 30.7592 32.034C30.413 32.034 30.0701 31.9505 29.7706 31.7929C29.3468 31.5714 28.6338 30.993 28.6338 29.617C28.6338 28.7626 29.053 28.0277 29.815 27.5478C30.4164 27.1687 31.2069 26.9612 32.0418 26.9612C32.8767 26.9612 33.7344 27.1919 34.3358 27.5953C35.0523 28.074 35.4476 28.7916 35.4476 29.617C35.4476 30.993 34.7345 31.5714 34.3096 31.794C34.0101 31.9517 33.6684 32.0351 33.3221 32.0351Z" fill="#571801"/>
<path d="M34.8461 29.617C34.8461 30.6151 34.4042 31.0556 34.0351 31.2492C33.4872 31.5367 32.8494 31.4323 32.502 31.1796C32.3653 31.0799 32.2024 31.0289 32.0418 31.0289C31.8812 31.0289 31.7183 31.0788 31.5805 31.1796C31.2331 31.4312 30.5952 31.5367 30.0473 31.2492C29.6783 31.0556 29.2363 30.6151 29.2363 29.617C29.2363 28.2131 30.6897 27.5732 32.0418 27.5732C32.7822 27.5732 33.4986 27.768 34.0055 28.1065C34.3894 28.3627 34.8461 28.8333 34.8461 29.617Z" fill="#FB4700"/>
<path d="M34.2902 30.7239C33.6706 31.0114 32.9496 30.9071 32.5555 30.6544C32.4005 30.5547 32.2172 30.5037 32.0349 30.5037C31.8527 30.5037 31.6681 30.5535 31.5132 30.6544C31.1203 30.9059 30.3981 31.0114 29.7785 30.7239C29.6441 30.6614 29.5005 30.5732 29.3684 30.4481C29.5267 30.8828 29.8024 31.1204 30.0473 31.2491C30.5952 31.5366 31.233 31.4322 31.5804 31.1795C31.7171 31.0798 31.88 31.0288 32.0417 31.0288C32.2035 31.0288 32.3652 31.0787 32.5019 31.1795C32.8493 31.4311 33.4872 31.5366 34.0351 31.2491C34.2834 31.1192 34.5647 30.8758 34.7219 30.426C34.583 30.5617 34.4315 30.6579 34.2891 30.7239H34.2902Z" fill="#E14307"/>
<path d="M30.7616 30.4979C31.0168 30.4979 31.1512 30.0934 31.1512 29.6934C31.1512 29.2935 31.0179 28.8889 30.7616 28.8889C30.5053 28.8889 30.3721 29.2935 30.3721 29.6934C30.3721 30.0934 30.5053 30.4979 30.7616 30.4979Z" fill="#571801"/>
<path d="M33.2538 30.4979C33.509 30.4979 33.6434 30.0934 33.6434 29.6934C33.6434 29.2935 33.5101 28.8889 33.2538 28.8889C32.9975 28.8889 32.8643 29.2935 32.8643 29.6934C32.8643 30.0934 32.9975 30.4979 33.2538 30.4979Z" fill="#571801"/>
<path d="M32.0417 27.9616C32.8378 27.9616 33.6078 28.1563 34.1523 28.4948C34.3562 28.6223 34.5806 28.802 34.7537 29.0455C34.6011 28.5945 34.2844 28.2931 34.0042 28.1065C33.4974 27.7668 32.782 27.5732 32.0405 27.5732C30.8889 27.5732 29.6633 28.0381 29.3262 29.0443C29.8501 28.3059 30.9744 27.9616 32.0405 27.9616H32.0417Z" fill="#FD7A47"/>
<path d="M27.9878 28.2792C26.2576 28.2792 25.6107 27.5222 25.4535 26.5624C25.2382 25.2501 26.4103 23.3189 28.5676 24.084L27.9878 28.2792Z" fill="white"/>
<path d="M27.9843 23.9807C26.9364 23.9807 26.0855 24.9464 26.0867 26.1322C26.0867 27.317 26.941 28.2803 27.9877 28.2791C29.0345 28.278 29.8865 27.3135 29.8854 26.1276C29.8842 24.9417 29.0311 23.9796 27.9843 23.9807Z" fill="#571801"/>
<path d="M28.1018 26.8859C27.6644 26.7735 27.3637 26.3063 27.317 25.8217C27.2942 25.591 27.0185 25.518 26.9183 25.7197C26.3738 26.8164 27.5231 27.9315 28.3797 27.3739C28.5608 27.2557 28.489 26.945 28.2817 26.923C28.2225 26.916 28.1633 26.9045 28.1029 26.8859H28.1018Z" fill="#962906"/>
<path d="M28.5675 26.239C28.8317 26.239 29.0459 25.9966 29.0459 25.6976C29.0459 25.3986 28.8317 25.1562 28.5675 25.1562C28.3033 25.1562 28.0891 25.3986 28.0891 25.6976C28.0891 25.9966 28.3033 26.239 28.5675 26.239Z" fill="white"/>
<path d="M36.0158 28.2792C37.746 28.2792 38.393 27.5222 38.5502 26.5624C38.7655 25.2501 37.5934 23.3189 35.436 24.084L36.0158 28.2792Z" fill="white"/>
<path d="M36.0192 23.9807C37.0672 23.9807 37.918 24.9464 37.9169 26.1322C37.9169 27.317 37.0626 28.2803 36.0158 28.2791C34.969 28.278 34.117 27.3135 34.1182 26.1276C34.1182 24.9429 34.9724 23.9796 36.0192 23.9807Z" fill="#571801"/>
<path d="M35.9019 26.8859C36.3393 26.7735 36.64 26.3063 36.6867 25.8217C36.7095 25.591 36.9851 25.518 37.0854 25.7197C37.6298 26.8164 36.4806 27.9315 35.624 27.3739C35.4429 27.2557 35.5146 26.945 35.7219 26.923C35.7812 26.916 35.8404 26.9045 35.9008 26.8859H35.9019Z" fill="#962906"/>
<path d="M35.4362 26.239C35.7004 26.239 35.9146 25.9966 35.9146 25.6976C35.9146 25.3986 35.7004 25.1562 35.4362 25.1562C35.1719 25.1562 34.9578 25.3986 34.9578 25.6976C34.9578 25.9966 35.1719 26.239 35.4362 26.239Z" fill="white"/>
<path d="M34.3254 20.2526C34.3254 20.5077 34.5521 20.714 35.1512 20.714C35.7504 20.714 36.493 20.5077 36.493 20.2526C36.493 19.9976 35.7504 19.7913 35.1512 19.7913C34.5521 19.7913 34.3254 19.9976 34.3254 20.2526Z" fill="#571801"/>
<path d="M29.6781 20.2526C29.6781 20.5077 29.4514 20.714 28.8523 20.714C28.2532 20.714 27.5105 20.5077 27.5105 20.2526C27.5105 19.9976 28.2532 19.7913 28.8523 19.7913C29.4514 19.7913 29.6781 19.9976 29.6781 20.2526Z" fill="#571801"/>
</g>
<defs>
<filter id="filter0_d_8417_554" x="0.685791" y="0.699951" width="62.6995" height="61.0012" filterUnits="userSpaceOnUse" color-interpolation-filters="sRGB">
<feFlood flood-opacity="0" result="BackgroundImageFix"/>
<feColorMatrix in="SourceAlpha" type="matrix" values="0 0 0 0 0 0 0 0 0 0 0 0 0 0 0 0 0 0 127 0" result="hardAlpha"/>
<feOffset dy="4"/>
<feGaussianBlur stdDeviation="8.5"/>
<feComposite in2="hardAlpha" operator="out"/>
<feColorMatrix type="matrix" values="0 0 0 0 0 0 0 0 0 0 0 0 0 0 0 0 0 0 0.25 0"/>
<feBlend mode="normal" in2="BackgroundImageFix" result="effect1_dropShadow_8417_554"/>
<feBlend mode="normal" in="SourceGraphic" in2="effect1_dropShadow_8417_554" result="shape"/>
</filter>
</defs>
</svg>
