<svg width="228" height="102" viewBox="0 0 228 102" fill="none" xmlns="http://www.w3.org/2000/svg">
<path d="M151.584 43.381C151.019 41.4779 151.094 39.8596 151.809 38.5262C152.43 37.3655 153.425 36.5817 154.796 36.1748C156.63 35.6304 158.15 35.8338 159.355 36.7851C160.024 37.3215 160.477 37.9248 160.713 38.5949L158.435 39.2711C158.132 38.7924 157.825 38.4543 157.514 38.2568C156.96 37.9065 156.276 37.852 155.462 38.0935C154.634 38.3394 154.08 38.8685 153.801 39.681C153.52 40.4886 153.561 41.5038 153.924 42.7265C154.287 43.9492 154.811 44.7916 155.495 45.2537C156.183 45.7094 156.917 45.8217 157.696 45.5904C158.494 45.3533 159.026 44.9113 159.29 44.2642C159.438 43.9144 159.505 43.4358 159.491 42.8284L161.747 42.1588C161.902 43.4056 161.684 44.5219 161.091 45.5079C160.504 46.4924 159.576 47.1727 158.309 47.5489C156.741 48.0143 155.359 47.8772 154.164 47.1378C152.966 46.3934 152.106 45.1412 151.584 43.381ZM167.599 42.8438C168.216 42.6608 168.624 42.3009 168.824 41.7641C169.024 41.2272 169.004 40.5545 168.764 39.7459C168.524 38.9373 168.174 38.3651 167.715 38.0293C167.255 37.6885 166.716 37.6096 166.1 37.7926C165.484 37.9755 165.073 38.3362 164.868 38.8745C164.666 39.4064 164.686 40.0767 164.926 40.8853C165.166 41.6938 165.516 42.2685 165.977 42.6092C166.442 42.9485 166.983 43.0267 167.599 42.8438ZM170.975 39.0895C171.326 40.2728 171.287 41.387 170.857 42.432C170.425 43.4722 169.517 44.1979 168.131 44.6091C166.746 45.0204 165.589 44.9079 164.659 44.2717C163.729 43.6306 163.088 42.7184 162.737 41.5351C162.391 40.3715 162.432 39.2622 162.859 38.2073C163.286 37.1524 164.193 36.4193 165.578 36.0081C166.964 35.5968 168.123 35.7167 169.057 36.3677C169.99 37.0186 170.63 37.9259 170.975 39.0895ZM175.7 33.0758C176.534 32.8285 177.279 32.8459 177.937 33.1281C178.598 33.4039 179.079 34.0472 179.379 35.0579L180.99 40.4863L178.831 41.1273L177.375 36.2241C177.249 35.8 177.096 35.4915 176.915 35.2983C176.585 34.9456 176.129 34.8557 175.548 35.0284C174.833 35.2406 174.432 35.6894 174.346 36.3749C174.303 36.7363 174.355 37.166 174.503 37.664L175.799 42.0274L173.698 42.6509L171.31 34.6045L173.343 34.0008L173.693 35.1767C173.841 34.682 174.009 34.3076 174.196 34.0535C174.533 33.5993 175.035 33.2734 175.7 33.0758ZM184.96 30.3273C185.793 30.08 186.538 30.0974 187.196 30.3796C187.857 30.6554 188.338 31.2987 188.638 32.3094L190.249 37.7378L188.09 38.3788L186.634 33.4755C186.509 33.0515 186.355 32.7429 186.175 32.5498C185.845 32.1971 185.389 32.1071 184.807 32.2798C184.092 32.492 183.691 32.9409 183.605 33.6264C183.562 33.9878 183.615 34.4175 183.763 34.9155L185.058 39.2789L182.957 39.9023L180.569 31.856L182.603 31.2522L182.952 32.4281C183.1 31.9335 183.268 31.5591 183.455 31.305C183.793 30.8508 184.294 30.5249 184.96 30.3273ZM193.441 29.6765C192.953 29.8214 192.619 30.087 192.439 30.4731C192.263 30.8579 192.218 31.3218 192.304 31.8649L195.581 30.8924C195.381 30.3455 195.086 29.9744 194.695 29.7792C194.308 29.5776 193.89 29.5434 193.441 29.6765ZM192.925 27.9386C193.596 27.7395 194.237 27.686 194.849 27.7779C195.461 27.8698 196.023 28.135 196.534 28.5734C196.991 28.958 197.361 29.452 197.642 30.0552C197.806 30.4089 197.986 30.9348 198.182 31.6329L192.665 33.2706C192.935 34.0704 193.357 34.562 193.932 34.7455C194.283 34.8613 194.663 34.8584 195.072 34.737C195.506 34.6082 195.822 34.3803 196.02 34.0533C196.128 33.8762 196.204 33.6526 196.247 33.3822L198.399 32.7434C198.487 33.2378 198.382 33.7973 198.085 34.4221C197.627 35.4109 196.777 36.0897 195.535 36.4585C194.509 36.7629 193.507 36.7012 192.527 36.2732C191.547 35.8452 190.836 34.8867 190.394 33.3978C189.979 32.0025 190.014 30.8279 190.498 29.8742C190.987 28.9189 191.796 28.2737 192.925 27.9386ZM203.913 28.0569C203.784 27.7679 203.603 27.5267 203.368 27.3334C203.035 27.0783 202.619 27.0246 202.121 27.1724C201.411 27.3832 201.03 27.8798 200.978 28.6624C200.952 29.0781 201.03 29.5966 201.215 30.2178C201.39 30.8095 201.601 31.2648 201.845 31.5837C202.296 32.1796 202.869 32.3744 203.564 32.168C204.057 32.0216 204.368 31.7846 204.496 31.4569C204.624 31.1292 204.647 30.7467 204.565 30.3096L206.718 29.6707C206.859 30.3263 206.807 31.0015 206.562 31.6964C206.175 32.8145 205.334 33.566 204.037 33.9509C202.74 34.3358 201.672 34.2344 200.832 33.6468C199.993 33.0591 199.391 32.1515 199.026 30.9238C198.615 29.5384 198.633 28.3608 199.08 27.3912C199.527 26.4215 200.345 25.7603 201.533 25.4076C202.544 25.1076 203.437 25.0893 204.213 25.3526C204.993 25.6145 205.613 26.3022 206.072 27.4159L203.913 28.0569ZM206.31 25.9129L205.865 24.4116L206.989 24.0779L206.321 21.8296L208.407 21.2106L209.074 23.4588L210.383 23.0702L210.829 24.5715L209.52 24.9601L210.784 29.22C210.882 29.5503 210.986 29.7449 211.095 29.8039C211.202 29.8579 211.47 29.8212 211.899 29.6939C211.963 29.6749 212.029 29.6551 212.098 29.6346C212.171 29.6077 212.241 29.5816 212.309 29.5562L212.776 31.1314L211.789 31.4648C210.803 31.7949 210.071 31.8243 209.594 31.553C209.286 31.3816 209.057 31.0445 208.907 30.5416L207.434 25.5792L206.31 25.9129ZM165.297 52.0593L168.592 57.873L169.419 59.5188L169.232 57.7234L168.596 51.0802L170.999 50.3667L174.146 56.2244L174.995 57.8635L174.832 56.0934L174.416 49.3524L176.731 48.6653L176.898 60.4775L174.723 61.1229L171.514 55.1386L170.504 53.1451L170.745 55.367L171.321 62.1327L169.206 62.7606L162.879 52.7771L165.297 52.0593ZM183.899 54.1342C183.79 54.2575 183.675 54.3668 183.553 54.462C183.435 54.5508 183.264 54.6525 183.04 54.7672L182.594 54.9964C182.173 55.207 181.884 55.3976 181.725 55.568C181.457 55.8569 181.383 56.2035 181.503 56.6078C181.609 56.9677 181.786 57.1997 182.031 57.3039C182.28 57.4017 182.548 57.4081 182.834 57.3232C183.287 57.1886 183.664 56.9318 183.965 56.5529C184.27 56.1725 184.326 55.6275 184.131 54.9181L183.899 54.1342ZM182.327 53.5304C182.702 53.3654 182.962 53.2211 183.108 53.0974C183.371 52.8799 183.462 52.6356 183.381 52.3644C183.283 52.0341 183.1 51.8417 182.832 51.7872C182.567 51.7264 182.213 51.7618 181.769 51.8935C181.271 52.0413 180.955 52.2692 180.821 52.5772C180.727 52.8035 180.702 53.0793 180.745 53.4046L178.711 54.0083C178.546 53.2901 178.571 52.6522 178.787 52.0947C179.133 51.2193 179.984 50.5804 181.34 50.178C182.223 49.916 183.059 49.8583 183.848 50.0049C184.637 50.1516 185.176 50.7105 185.464 51.6818L186.562 55.3796C186.638 55.636 186.735 55.9451 186.853 56.3071C186.95 56.5788 187.048 56.7537 187.146 56.8318C187.244 56.9099 187.372 56.9605 187.529 56.9836L187.621 57.2943L185.328 57.9748C185.216 57.8311 185.126 57.6915 185.059 57.5558C184.992 57.4201 184.924 57.2633 184.855 57.0853C184.658 57.4871 184.402 57.8554 184.089 58.1899C183.713 58.5859 183.239 58.8687 182.667 59.0385C181.937 59.2551 181.272 59.2273 180.67 58.9551C180.073 58.6766 179.66 58.1552 179.434 57.3909C179.139 56.3999 179.309 55.5691 179.941 54.8986C180.288 54.5326 180.854 54.1771 181.636 53.832L182.327 53.5304ZM191.201 56.2317L189.093 56.8574L185.857 45.9563L187.965 45.3307L191.201 56.2317ZM195.416 54.9804L193.308 55.6061L190.072 44.705L192.18 44.0793L195.416 54.9804ZM198.719 46.8862C198.231 47.0311 197.896 47.2967 197.716 47.6829C197.541 48.0676 197.496 48.5315 197.582 49.0746L200.858 48.1021C200.658 47.5552 200.363 47.1841 199.973 46.9889C199.585 46.7873 199.168 46.7531 198.719 46.8862ZM198.203 45.1483C198.874 44.9492 199.515 44.8957 200.127 44.9876C200.739 45.0795 201.3 45.3447 201.812 45.7831C202.269 46.1677 202.638 46.6617 202.919 47.2649C203.083 47.6186 203.264 48.1445 203.46 48.8426L197.943 50.4803C198.213 51.2801 198.635 51.7718 199.21 51.9552C199.56 52.071 199.941 52.0682 200.35 51.9467C200.784 51.8179 201.1 51.59 201.298 51.263C201.406 51.0859 201.482 50.8623 201.525 50.592L203.677 49.9531C203.765 50.4475 203.66 51.007 203.363 51.6318C202.905 52.6206 202.055 53.2994 200.813 53.6682C199.787 53.9726 198.784 53.9109 197.804 53.4829C196.824 53.0549 196.113 52.0965 195.671 50.6075C195.257 49.2122 195.292 48.0376 195.776 47.0839C196.265 46.1286 197.074 45.4834 198.203 45.1483ZM203.157 45.6252L202.711 44.1239L203.835 43.7902L203.168 41.542L205.253 40.9229L205.921 43.1712L207.23 42.7826L207.675 44.2839L206.366 44.6725L207.631 48.9323C207.729 49.2627 207.832 49.4573 207.941 49.5162C208.048 49.5702 208.316 49.5336 208.745 49.4062C208.809 49.3872 208.876 49.3675 208.945 49.347C209.018 49.3201 209.088 49.2939 209.155 49.2685L209.623 50.8438L208.635 51.1771C207.65 51.5073 206.918 51.5367 206.44 51.2653C206.132 51.094 205.903 50.7569 205.754 50.254L204.281 45.2915L203.157 45.6252Z" fill="white"/>
<path fill-rule="evenodd" clip-rule="evenodd" d="M114.739 74.8142L128.992 78.22C124.043 77.9192 119.295 76.7384 114.739 74.8142M82.6582 75.9449C88.2448 76.6191 93.7547 77.4779 99.3485 77.5274C93.6144 78.6392 88.0919 77.4619 82.6582 75.9449M94.318 57.6562C94.0523 55.5063 95.4716 55.6233 96.7668 55.6671C101.147 55.8125 103.729 58.8919 106.169 61.8598C107.948 64.0228 109.525 66.4953 109.884 69.4349C110.022 70.5557 109.821 71.4806 108.28 70.8391C104.074 69.0868 100.217 66.8193 97.2271 63.3054C95.8026 61.6313 94.7336 59.7411 94.318 57.6562M99.0458 74.983C95.5577 75.5429 92.0862 74.9468 88.6328 74.4631C73.7115 72.3719 60.6344 65.9921 48.4674 57.3548C40.3401 51.5847 32.8428 45.0964 25.5597 38.3306C24.8946 37.7138 24.2468 37.0635 23.3246 36.8492C22.2884 36.6091 21.5925 36.7666 22.2082 38.0444C22.359 38.3594 22.8474 38.6155 22.2469 38.8745C20.1763 39.7688 20.929 41.2662 21.4656 42.6446C22.4718 45.2316 24.4871 47.1364 26.2543 49.1553C31.2046 54.8121 36.3738 60.2871 42.2165 65.0364C47.6409 69.4451 53.6433 73.0185 59.7421 76.4218C63.6245 78.588 67.6035 80.7378 71.9692 81.4293C74.8695 81.8887 77.3329 83.3583 80.1662 83.8384C85.5977 84.7585 91.0174 85.6172 96.5544 85.3171C101.112 85.0697 105.292 83.7012 108.984 81.0141C110.201 80.1277 111.417 79.9413 112.795 80.3392C116.51 81.4106 120.271 82.3658 124.014 83.2628C130.103 84.7236 136.396 85.2116 142.666 85.4538C152.668 85.8403 162.573 85.2193 172.2 82.1849C177.859 80.4015 183.322 78.2755 187.184 73.4124C188.2 72.1321 188.909 70.7646 188.666 69.0549C188.563 68.3179 188.267 67.7841 187.51 67.5543C186.614 67.2837 186.605 67.8985 186.272 68.4964C183.986 72.5982 179.731 73.5707 175.728 74.8646C164.697 78.4309 153.351 78.6016 141.933 77.8748C133.195 77.3184 124.596 75.9149 116.171 73.5067C115.502 73.3156 114.622 73.435 115.022 72.1674C116.416 67.7511 115.643 63.4772 113.67 59.4522C110.625 53.2391 106.247 48.4121 99.0422 47.1768C95.1706 46.5128 92.8019 48.0078 90.9519 51.4477C86.2373 60.2107 90.2811 68.6433 97.2558 73.1904C97.881 73.5969 98.5054 74.0035 99.1288 74.4093C99.1015 74.601 99.0732 74.7921 99.0458 74.983" fill="white"/>
<path fill-rule="evenodd" clip-rule="evenodd" d="M20.6013 26.7241C16.0565 25.8242 11.7339 24.3328 7.74028 21.9742C12.027 23.5572 16.3138 25.1411 20.6013 26.7241M13.5512 46.1807C12.935 41.5279 11.5358 37.0614 10.3139 32.5521C10.1312 31.8781 9.56044 31.1842 10.3561 30.4903C11.1205 29.8241 11.8238 30.3414 12.4247 30.6486C15.7014 32.3203 19.2854 32.9366 22.766 33.9485C24.9645 34.5887 27.0598 35.6494 29.3387 36.2381C32.8476 37.1433 36.2928 38.3128 39.7347 39.4593C41.479 40.04 43.4197 39.7789 45.0239 41.0749C46.5978 42.3458 48.0862 41.7469 49.5684 39.1777C50.3254 37.8666 50.5122 36.2091 48.8704 35.2246C47.5202 34.4151 46.0839 33.6961 44.6041 33.1665C34.8101 29.6628 24.988 26.2382 15.1902 22.7457C12.9909 21.962 10.8421 21.0291 8.6812 20.1393C4.75228 18.521 3.24335 19.2374 1.6755 23.2067C0.458462 26.2881 0.651682 29.1758 2.02692 32.1641C4.67339 37.9165 7.15614 43.7446 8.67907 49.9205C8.98393 51.1581 9.11464 52.4375 9.37172 53.6888C9.66809 55.1378 10.3958 55.4361 11.5578 54.4363C14.1347 52.2219 14.2992 51.5531 13.5512 46.1807" fill="white"/>
</svg>
