<svg width="120" height="120" viewBox="0 0 120 120" fill="none" xmlns="http://www.w3.org/2000/svg">
<rect width="119.967" height="119.967" rx="59.9835" fill="white"/>
<path d="M59.9835 3.61875e-06C48.1199 3.61875e-06 36.5227 3.51797 26.6585 10.109C16.7942 16.7001 9.10601 26.0683 4.566 37.0288C0.0259899 47.9894 -1.16188 60.05 1.15259 71.6857C3.46707 83.3213 9.17994 94.0094 17.5688 102.398C25.9576 110.787 36.6457 116.5 48.2813 118.814C59.917 121.129 71.9776 119.941 82.9382 115.401C93.8988 110.861 103.267 103.173 109.858 93.3085C116.449 83.4443 119.967 71.8471 119.967 59.9835C119.97 52.1056 118.42 44.3043 115.407 37.0256C112.393 29.7468 107.975 23.1332 102.404 17.5627C96.8338 11.9921 90.2202 7.57388 82.9414 4.5604C75.6627 1.54692 67.8614 -0.00273319 59.9835 3.61875e-06V3.61875e-06ZM59.9835 17.1411C65.0667 17.1411 70.0358 18.6485 74.2624 21.4726C78.4889 24.2967 81.7831 28.3106 83.7284 33.0069C85.6736 37.7032 86.1826 42.8709 85.1909 47.8564C84.1992 52.842 81.7514 57.4215 78.157 61.0159C74.5627 64.6103 69.9831 67.0581 64.9976 68.0498C60.012 69.0415 54.8444 68.5325 50.1481 66.5872C45.4518 64.642 41.4378 61.3478 38.6137 57.1212C35.7896 52.8947 34.2823 47.9256 34.2823 42.8424C34.2795 39.4665 34.9424 36.1232 36.2331 33.0037C37.5237 29.8842 39.4167 27.0499 41.8039 24.6627C44.191 22.2756 47.0254 20.3826 50.1448 19.0919C53.2643 17.8013 56.6076 17.1384 59.9835 17.1411V17.1411ZM95.2446 84.0185C91.3609 89.8048 86.1129 94.5464 79.9635 97.8251C73.8141 101.104 66.9523 102.819 59.9835 102.819C53.0147 102.819 46.1529 101.104 40.0036 97.8251C33.8542 94.5464 28.6061 89.8048 24.7224 84.0185C23.647 82.4462 23.1211 80.5625 23.2266 78.6605C23.332 76.7584 24.0629 74.9445 25.3056 73.5006C34.3656 63.0452 46.9246 77.0621 59.9835 77.0621C73.0424 77.0621 85.6015 62.9827 94.6615 73.4381C95.9191 74.8869 96.659 76.7129 96.7646 78.6285C96.8701 80.5441 96.3354 82.4403 95.2446 84.0185V84.0185Z" fill="#FF2E00"/>
<path d="M59.9835 3.61875e-06C48.1199 3.61875e-06 36.5227 3.51797 26.6585 10.109C16.7942 16.7001 9.10601 26.0683 4.566 37.0288C0.0259899 47.9894 -1.16188 60.05 1.15259 71.6857C3.46707 83.3213 9.17994 94.0094 17.5688 102.398C25.9576 110.787 36.6457 116.5 48.2813 118.814C59.917 121.129 71.9776 119.941 82.9382 115.401C93.8988 110.861 103.267 103.173 109.858 93.3085C116.449 83.4443 119.967 71.8471 119.967 59.9835C119.97 52.1056 118.42 44.3043 115.407 37.0256C112.393 29.7468 107.975 23.1332 102.404 17.5627C96.8338 11.9921 90.2202 7.57388 82.9414 4.5604C75.6627 1.54692 67.8614 -0.00273319 59.9835 3.61875e-06V3.61875e-06ZM59.9835 17.1411C65.0667 17.1411 70.0358 18.6485 74.2624 21.4726C78.4889 24.2967 81.7831 28.3106 83.7284 33.0069C85.6736 37.7032 86.1826 42.8709 85.1909 47.8564C84.1992 52.842 81.7514 57.4215 78.157 61.0159C74.5627 64.6103 69.9831 67.0581 64.9976 68.0498C60.012 69.0415 54.8444 68.5325 50.1481 66.5872C45.4518 64.642 41.4378 61.3478 38.6137 57.1212C35.7896 52.8947 34.2823 47.9256 34.2823 42.8424C34.2795 39.4665 34.9424 36.1232 36.2331 33.0037C37.5237 29.8842 39.4167 27.0499 41.8039 24.6627C44.191 22.2756 47.0254 20.3826 50.1448 19.0919C53.2643 17.8013 56.6076 17.1384 59.9835 17.1411V17.1411ZM95.2446 84.0185C91.3609 89.8048 86.1129 94.5464 79.9635 97.8251C73.8141 101.104 66.9523 102.819 59.9835 102.819C53.0147 102.819 46.1529 101.104 40.0036 97.8251C33.8542 94.5464 28.6061 89.8048 24.7224 84.0185C23.647 82.4462 23.1211 80.5625 23.2266 78.6605C23.332 76.7584 24.0629 74.9445 25.3056 73.5006C34.3656 63.0452 46.9246 77.0621 59.9835 77.0621C73.0424 77.0621 85.6015 62.9827 94.6615 73.4381C95.9191 74.8869 96.659 76.7129 96.7646 78.6285C96.8701 80.5441 96.3354 82.4403 95.2446 84.0185V84.0185Z" fill="url(#paint0_linear_8650_7023)"/>
<defs>
<linearGradient id="paint0_linear_8650_7023" x1="91.8115" y1="30.6038" x2="29.9918" y2="91.1994" gradientUnits="userSpaceOnUse">
<stop stop-color="#977406"/>
<stop offset="1" stop-color="#352811"/>
</linearGradient>
</defs>
</svg>
