<svg width="64" height="62" viewBox="0 0 64 62" fill="none" xmlns="http://www.w3.org/2000/svg">
<g filter="url(#filter0_d_8426_116)">
<path d="M31.2464 40.1619C27.7744 40.0001 24.8785 39.1101 22.671 37.4709C20.9308 36.1809 19.6724 34.4796 18.7961 32.295L18.7953 32.2929C18.3084 31.0629 18.2276 29.293 18.4854 27.0902L18.4856 27.0891C18.6979 25.3078 19.098 23.6032 19.3075 22.7417L19.3089 22.7362L19.3089 22.7362L19.4076 22.3497C19.3319 22.1526 19.2644 21.9451 19.1994 21.7315C18.8093 20.4663 18.8967 19.4241 19.1978 18.6024C19.496 17.7886 19.9917 17.2225 20.3748 16.8783L20.3763 16.877L20.3763 16.877L20.821 16.4807C21.2902 15.3483 22.1519 14.7589 22.9176 14.4654L22.9307 14.4603L22.9308 14.4605C23.401 14.2953 23.8633 14.2004 24.3483 14.2004C25.1353 14.2004 25.8837 14.4597 26.5611 14.9413C26.8186 15.1227 27.053 15.3301 27.2691 15.5616C27.6145 15.4396 27.9789 15.3254 28.3718 15.2248C29.6872 14.8782 31.0507 14.6988 32.415 14.6988C33.78 14.6988 35.1441 14.8784 36.46 15.2253L36.463 15.2261C36.8112 15.3202 37.1841 15.4422 37.5533 15.5744C37.7391 15.3779 37.9771 15.1536 38.2638 14.9451L38.2751 14.9369L38.2752 14.937C38.9707 14.4605 39.7166 14.2004 40.505 14.2004C40.8589 14.2004 41.1079 14.2214 41.3338 14.2746C41.5224 14.319 41.6847 14.3847 41.8438 14.4492C41.8683 14.4591 41.8928 14.469 41.9172 14.4788C42.8949 14.8603 43.6088 15.5462 43.9971 16.4902L44.4498 16.8851L44.4521 16.8871C45.2472 17.5894 46.4227 19.1715 45.6427 21.7418L45.6407 21.7482L45.6407 21.7482C45.5767 21.9493 45.5095 22.1538 45.4341 22.3498L45.5322 22.734C45.5323 22.7343 45.5324 22.7347 45.5325 22.7351C45.7566 23.5962 46.1442 25.3109 46.3561 27.0891L46.3563 27.0902C46.614 29.293 46.5332 31.0629 46.0464 32.2929L46.0455 32.295C45.1693 34.4796 43.9109 36.1809 42.1707 37.4709L31.2464 40.1619ZM31.2464 40.1619L31.2079 40.2004H32.415C36.4274 40.2004 39.7184 39.2919 42.1706 37.471L31.2464 40.1619Z" fill="#035704" stroke="white"/>
<path d="M44.237 23.0685C43.588 24.0884 42.8114 24.3087 42.174 24.3087C41.5365 24.3087 41.9885 24.3087 41.8958 24.2971H41.8726C41.2931 24.2507 39.1953 23.2655 38.9403 19.2669C38.9403 19.1278 39.1374 19.1047 39.1605 19.2437C39.3923 20.4259 39.8096 21.979 40.5514 22.7324C41.1425 23.5089 41.7799 23.7176 41.919 23.7291H41.9422C42.4406 23.7755 43.5996 23.8682 44.3645 21.3532C44.9324 19.4987 44.1559 18.4093 43.5764 17.8993C43.5764 19.1047 42.9505 19.3828 42.9621 19.2322C43.0432 18.4672 43.275 16.4389 41.4438 15.7435C40.6093 15.419 39.8096 15.5233 39.0678 16.0565C38.7549 16.2767 38.5115 16.5432 38.3608 16.7287C38.8128 17.0184 39.0215 17.737 38.8708 17.6559C38.2101 17.2734 37.0859 16.7982 36.1355 16.5432C33.7132 15.8942 31.1517 15.8942 28.7178 16.5432C27.7674 16.7982 26.9445 17.1227 26.2839 17.5052C26.2375 17.5284 26.1911 17.54 26.1448 17.54C26.0984 17.54 26.1448 17.03 26.4925 16.7403C26.3418 16.5548 26.0984 16.2883 25.7855 16.068C25.0437 15.5349 24.244 15.4422 23.4095 15.7551C21.7869 16.381 21.7869 18.05 21.8564 18.9424C21.868 19.0931 21.2305 18.3281 21.2769 17.9109C20.6974 18.4324 19.9093 19.5103 20.4888 21.3647C21.2537 23.8798 22.4127 23.7755 22.9111 23.7407H22.9343C23.0734 23.7291 23.7108 23.5321 24.3019 22.744C24.3019 22.744 25.1017 21.8399 25.6464 19.5103C25.6812 19.3712 25.9014 19.3944 25.8782 19.5451C25.5769 22.9642 23.8847 24.3202 22.9807 24.3202H22.9575C22.8648 24.3202 22.772 24.3318 22.6793 24.3318C22.0419 24.3318 21.2653 24.1232 20.6163 23.0917C20.1642 24.865 19.1327 29.5474 20.0483 31.8075C20.8365 33.7662 21.9491 35.273 23.479 36.4088C25.6696 38.043 28.683 38.8659 32.4267 38.8659C36.1703 38.8659 39.1837 38.043 41.3743 36.4088C42.9042 35.273 44.0284 33.7662 44.805 31.8075C45.709 29.5358 44.6775 24.865 44.237 23.0917V23.0685Z" fill="#66FF81"/>
<path d="M26.1912 17.5052C26.1101 17.7138 26.1101 17.8876 26.1449 17.8876C26.1796 17.8876 26.2376 17.876 26.284 17.8529C26.9446 17.4704 27.7559 17.1459 28.7179 16.8909C31.1402 16.2418 33.7017 16.2418 36.1356 16.8909C37.086 17.1459 38.2218 17.6211 38.8709 18.0035C38.952 18.0499 38.9288 17.8413 38.7898 17.5863C38.1291 17.2154 37.0512 16.7634 36.124 16.52C33.7017 15.8709 31.1402 15.8709 28.7063 16.52C27.7559 16.775 26.933 17.0995 26.2724 17.482C26.2376 17.4936 26.2028 17.5052 26.1796 17.5167L26.1912 17.5052Z" fill="#D8FDDE"/>
<path d="M44.5616 20.2985C44.6311 19.0699 44.04 18.2934 43.5764 17.8877C43.588 18.0268 43.5996 18.1543 43.5996 18.2818C44.0168 18.6526 44.5036 19.3017 44.5616 20.2985Z" fill="#D8FDDE"/>
<path d="M38.5463 16.8679C38.6854 16.7172 38.8592 16.5549 39.0678 16.4159C39.8096 15.8827 40.6093 15.79 41.4438 16.1029C42.6956 16.5781 42.9853 17.6792 43.0201 18.5716C43.0549 17.6444 42.881 16.2884 41.4438 15.732C40.6093 15.4075 39.8096 15.5118 39.0678 16.045C38.7549 16.2652 38.5115 16.5318 38.3608 16.7172C38.4304 16.7636 38.4883 16.8215 38.5463 16.8679Z" fill="#D8FDDE"/>
<path d="M21.2652 18.2818C21.2652 18.1543 21.2652 18.0268 21.2884 17.8877C20.8248 18.2934 20.2337 19.0699 20.3032 20.2985C20.3612 19.3017 20.8595 18.6526 21.2652 18.2818Z" fill="#D8FDDE"/>
<path d="M23.4094 16.103C24.2439 15.7784 25.0436 15.8828 25.7854 16.4159C26.0056 16.5666 26.1794 16.7404 26.3301 16.8911C26.3765 16.8332 26.4344 16.7636 26.4924 16.7173C26.3417 16.5318 26.0983 16.2652 25.7854 16.045C25.0436 15.5119 24.2439 15.4192 23.4094 15.7321C21.9838 16.2768 21.8099 17.6329 21.8447 18.5717C21.8795 17.6792 22.1692 16.5898 23.4094 16.1146V16.103Z" fill="#D8FDDE"/>
<path d="M29.0538 29.6169C29.0538 29.6169 28.7177 33.094 32.4266 33.094C36.1354 33.094 35.8109 29.6169 35.8109 29.6169H29.0538Z" fill="#57E75C"/>
<path d="M20.28 24.5057C21.242 25.5257 22.6328 25.572 23.3398 25.3634C25.9129 24.6101 25.8781 19.522 25.8781 19.522C25.8201 20.2058 25.7042 20.8085 25.542 21.33C24.9277 23.4163 23.6991 24.2855 22.9805 24.2855H22.9574C22.8646 24.2855 22.7719 24.2971 22.6792 24.2971C22.0417 24.2971 21.2652 24.0885 20.6161 23.057C20.5234 23.4279 20.4075 23.9262 20.28 24.4942V24.5057Z" fill="#57E75C"/>
<path d="M44.608 24.7258C44.4689 24.0652 44.3298 23.4857 44.2255 23.0684C43.5765 24.0884 42.7999 24.3086 42.1625 24.3086C41.525 24.3086 41.977 24.3086 41.8843 24.297H41.8611C41.2816 24.2506 39.1838 23.2655 38.9288 19.2668C38.9288 19.2668 38.6854 24.297 41.3743 25.1894C42.8927 25.6994 43.9589 25.1547 44.608 24.7374V24.7258Z" fill="#57E75C"/>
<path d="M45.1642 29.5359C45.1642 29.5359 43.5184 37.5099 32.4266 37.5099C21.3348 37.5099 19.689 29.5359 19.689 29.5359C19.689 30.3936 19.8049 31.1817 20.0483 31.796C20.8364 33.7547 21.949 35.2614 23.479 36.3973C25.6695 38.0315 28.6829 38.8544 32.4266 38.8544C36.1702 38.8544 39.1836 38.0315 41.3742 36.3973C42.9041 35.2614 44.0283 33.7547 44.8049 31.796C45.0483 31.1817 45.1526 30.3936 45.1642 29.5359Z" fill="#57E75C"/>
<path d="M32.4268 34.1951C31.5923 34.1951 30.8041 33.859 30.2246 33.2679C30.1087 33.152 30.1087 32.9549 30.2246 32.839C30.3405 32.7231 30.5376 32.7231 30.6535 32.839C31.1287 33.3142 31.7545 33.5808 32.4268 33.5808C33.099 33.5808 33.7249 33.3142 34.2 32.839C34.316 32.7115 34.513 32.7115 34.6289 32.839C34.7448 32.9549 34.7448 33.152 34.6289 33.2679C34.0378 33.8706 33.2612 34.1951 32.4268 34.1951Z" fill="#035704"/>
<path d="M29.8072 21.5039C29.7261 21.7473 29.448 21.8748 28.8684 21.6778C28.2889 21.4808 27.6399 21.0519 27.721 20.8085C27.8021 20.5651 28.5787 20.5999 29.1582 20.7969C29.7377 20.994 29.8884 21.2605 29.8072 21.4923V21.5039Z" fill="#035704"/>
<path d="M35.0577 21.5039C35.1388 21.7473 35.417 21.8748 35.9965 21.6778C36.576 21.4808 37.2251 21.0519 37.1439 20.8085C37.0628 20.5651 36.2863 20.5999 35.7067 20.7969C35.1272 20.994 34.9766 21.2605 35.0577 21.4923V21.5039Z" fill="#035704"/>
<path d="M41.6061 24.0189C41.2468 23.6249 40.702 23.3931 40.1225 23.3931H35.0344C34.4433 23.3931 33.8986 23.6133 33.5509 24.0073C33.2727 24.3203 33.1452 24.7028 33.18 25.0968L33.2264 25.5488H31.6385L31.6849 25.0968C31.7196 24.7143 31.5921 24.3319 31.314 24.0189C30.9547 23.6249 30.4099 23.3931 29.8304 23.3931H24.7424C24.1513 23.3931 23.6065 23.6133 23.2588 24.0073C22.9806 24.3203 22.8532 24.7028 22.8879 25.0968L23.1661 27.7278C23.3515 29.4663 25.1596 30.834 27.2922 30.834C29.4248 30.834 31.2329 29.4663 31.4183 27.7278L31.5458 26.4876H33.3307L33.4582 27.7278C33.6436 29.4663 35.4517 30.834 37.5843 30.834C39.7169 30.834 41.5249 29.4663 41.7104 27.7278L41.9885 25.0968C42.0349 24.7143 41.8958 24.3319 41.6292 24.0189H41.6061Z" fill="black"/>
<path d="M41.1655 25.0158L40.8873 27.6467C40.7483 28.9796 39.2879 30.0343 37.561 30.0343C35.834 30.0343 34.3737 28.9912 34.2346 27.6467L33.9564 25.0158C33.9332 24.8072 34.0375 24.6565 34.1187 24.5522C34.3157 24.332 34.6518 24.1929 35.0111 24.1929H40.0992C40.4585 24.1929 40.7946 24.332 40.9916 24.5522C41.0844 24.6449 41.1771 24.8072 41.1539 25.0158H41.1655Z" fill="#212026"/>
<path d="M30.8852 25.0158L30.6071 27.6467C30.468 28.9796 29.0076 30.0343 27.2807 30.0343C25.5537 30.0343 24.0934 28.9912 23.9543 27.6467L23.6761 25.0158C23.653 24.8072 23.7573 24.6565 23.8384 24.5522C24.0354 24.332 24.3715 24.1929 24.7308 24.1929H29.8189C30.1782 24.1929 30.5143 24.332 30.7114 24.5522C30.8041 24.6449 30.8968 24.8072 30.8736 25.0158H30.8852Z" fill="#212026"/>
<path d="M24.835 24.9808L25.2175 24.8533C25.2522 24.8533 25.2522 24.7954 25.2175 24.7838L24.835 24.6563C24.5684 24.5636 24.3714 24.3665 24.2787 24.1L24.1512 23.7175C24.1512 23.6827 24.0932 23.6827 24.0816 23.7175L23.9541 24.1C23.8614 24.3665 23.6644 24.5752 23.3978 24.6563L23.0153 24.7838C22.9806 24.7838 22.9806 24.8417 23.0153 24.8533L23.3978 24.9808C23.6644 25.0735 23.8614 25.2706 23.9541 25.5371L24.0816 25.9196C24.0816 25.9544 24.1396 25.9544 24.1512 25.9196L24.2787 25.5371C24.3714 25.2706 24.5684 25.0619 24.835 24.9808Z" fill="#FAFAFD"/>
<path d="M41.3394 29.1302L41.7219 29.0027C41.7566 29.0027 41.7566 28.9448 41.7219 28.9332L41.3394 28.8057C41.0728 28.713 40.8642 28.5159 40.7831 28.2494L40.6556 27.8669C40.644 27.8321 40.5976 27.8321 40.586 27.8669L40.4585 28.2494C40.3658 28.5159 40.1688 28.7246 39.9022 28.8057L39.5197 28.9332C39.485 28.9332 39.485 28.9911 39.5197 29.0027L39.9022 29.1302C40.1688 29.2229 40.3774 29.42 40.4585 29.6866L40.586 30.069C40.5976 30.1038 40.644 30.1038 40.6556 30.069L40.7831 29.6866C40.8758 29.42 41.0728 29.2114 41.3394 29.1302Z" fill="#FAFAFD"/>
<g style="mix-blend-mode:soft-light">
<path d="M36.9003 24.2043L34.165 26.928L34.2346 27.6466C34.2809 28.0986 34.4896 28.5275 34.8025 28.8868L39.4849 24.2043H36.8887H36.9003Z" fill="white"/>
<path d="M41.1425 24.7607C41.1077 24.668 41.0613 24.5984 41.015 24.5521C40.8643 24.3898 40.6441 24.2739 40.3891 24.2275L35.301 29.3156C35.5444 29.5011 35.8342 29.6517 36.1471 29.7676L41.1541 24.7607H41.1425Z" fill="white"/>
</g>
<g style="mix-blend-mode:soft-light">
<path d="M27.1069 24.2043L23.9312 27.3801L23.9543 27.6466C24.0123 28.2145 24.3136 28.7245 24.7656 29.1302L29.6915 24.2043H27.0953H27.1069Z" fill="white"/>
<path d="M30.862 25.2474L30.8852 25.0156C30.9084 24.807 30.804 24.6563 30.7229 24.552C30.6534 24.4709 30.5606 24.4013 30.4679 24.355L25.3103 29.5126C25.5885 29.6749 25.9014 29.8024 26.2259 29.8951L30.862 25.259V25.2474Z" fill="white"/>
</g>
<path d="M33.7362 32.0277C33.2958 32.0277 32.8669 31.9002 32.5424 31.6684C32.5076 31.6452 32.4729 31.6336 32.4265 31.6336C32.3802 31.6336 32.357 31.6336 32.3106 31.6684C31.9861 31.9002 31.5573 32.0277 31.1168 32.0277C30.6764 32.0277 30.4098 31.9465 30.1085 31.7843C29.6796 31.5641 28.9495 30.9846 28.9495 29.6053C28.9495 28.2261 29.3783 28.0175 30.1548 27.5423C30.7691 27.1598 31.5688 26.9512 32.4149 26.9512C33.261 26.9512 34.1419 27.183 34.7445 27.5886C35.4747 28.0638 35.8804 28.7824 35.8804 29.6053C35.8804 30.9846 35.1502 31.5641 34.7214 31.7843C34.42 31.9465 34.0723 32.0277 33.713 32.0277H33.7362Z" fill="#035704"/>
<path d="M35.2894 29.617C35.2894 30.6138 34.8374 31.0542 34.4665 31.2512C33.9102 31.541 33.2611 31.4367 32.9018 31.1817C32.7627 31.0774 32.6005 31.031 32.4382 31.031C32.2759 31.031 32.1137 31.0774 31.963 31.1817C31.6037 31.4367 30.9547 31.541 30.3983 31.2512C30.0275 31.0542 29.5754 30.6138 29.5754 29.617C29.5754 28.6203 31.059 27.5771 32.4266 27.5771C33.7943 27.5771 33.9102 27.7742 34.4201 28.1103C34.8142 28.3653 35.2778 28.8405 35.2778 29.617H35.2894Z" fill="#23FB32"/>
<path d="M34.7216 30.7181C34.0957 31.0078 33.3539 30.9035 32.9598 30.6486C32.7976 30.5442 32.6121 30.4979 32.4267 30.4979C32.2413 30.4979 32.0558 30.5442 31.8936 30.6486C31.4995 30.9035 30.7577 31.0078 30.1318 30.7181C29.9928 30.6601 29.8537 30.5674 29.7146 30.4399C29.8769 30.8804 30.155 31.1122 30.41 31.2396C30.9663 31.5294 31.6154 31.4251 31.9747 31.1701C32.1138 31.0658 32.276 31.0194 32.4499 31.0194C32.6237 31.0194 32.7744 31.0658 32.9135 31.1701C33.2728 31.4251 33.9102 31.5294 34.4782 31.2396C34.7331 31.1122 35.0113 30.8688 35.1736 30.4167C35.0345 30.5558 34.8722 30.6486 34.7331 30.7181H34.7216Z" fill="#42E14B"/>
<path d="M32.4381 27.9596C33.2495 27.9596 34.026 28.1567 34.5823 28.4928C34.791 28.6203 35.0228 28.8057 35.1966 29.0491C35.0459 28.5971 34.7214 28.2957 34.4317 28.1103C33.9217 27.7742 33.1915 27.5771 32.4381 27.5771C31.2675 27.5771 30.0158 28.0408 29.6797 29.0491C30.2128 28.3073 31.3603 27.9712 32.4381 27.9712V27.9596Z" fill="#A4FDA9"/>
<path d="M33.6668 30.4979C33.9218 30.4979 34.0608 30.0922 34.0608 29.6982C34.0608 29.3041 33.9218 28.8984 33.6668 28.8984C33.4118 28.8984 33.2727 29.3041 33.2727 29.6982C33.2727 30.0922 33.4118 30.4979 33.6668 30.4979Z" fill="#035704"/>
<path d="M31.1284 30.4979C31.3834 30.4979 31.5225 30.0922 31.5225 29.6982C31.5225 29.3041 31.3834 28.8984 31.1284 28.8984C30.8735 28.8984 30.7344 29.3041 30.7344 29.6982C30.7344 30.0922 30.8735 30.4979 31.1284 30.4979Z" fill="#035704"/>
</g>
<g filter="url(#filter1_d_8426_116)">
<path d="M38.3509 28.1121C37.8972 28.3727 37.3393 28.3727 36.8856 28.1121C36.429 27.8498 36.1475 27.3563 36.1475 26.8297C36.1475 26.3031 36.429 25.8097 36.8856 25.5473C37.3393 25.2867 37.8972 25.2867 38.3509 25.5473C38.8075 25.8097 39.089 26.3031 39.089 26.8297C39.089 27.3563 38.8075 27.8498 38.3509 28.1121ZM37.0994 27.7005C37.4182 27.8879 37.8183 27.8879 38.1371 27.7005C38.4457 27.5192 38.6375 27.1866 38.6375 26.8286C38.6375 26.4718 38.447 26.1402 38.14 25.9584C37.8197 25.7688 37.4168 25.7688 37.0966 25.9584C36.7895 26.1402 36.599 26.4718 36.599 26.8286C36.599 27.1866 36.7908 27.5192 37.0994 27.7005ZM37.6138 27.6836C37.4528 27.6836 37.3068 27.6448 37.1757 27.5674C37.0445 27.4899 36.9402 27.3856 36.8627 27.2544C36.7853 27.1203 36.7465 26.9743 36.7465 26.8163C36.7465 26.6584 36.7853 26.5138 36.8627 26.3827C36.9402 26.2515 37.0445 26.1472 37.1757 26.0697C37.3068 25.9893 37.4528 25.949 37.6138 25.949C37.7717 25.949 37.9163 25.9893 38.0474 26.0697C38.1786 26.1472 38.2829 26.2515 38.3604 26.3827C38.4408 26.5138 38.4811 26.6584 38.4811 26.8163C38.4811 26.9743 38.4423 27.1188 38.3648 27.2499C38.2873 27.3811 38.183 27.4869 38.0519 27.5674C37.9208 27.6448 37.7747 27.6836 37.6138 27.6836ZM37.6138 27.2991C37.7032 27.2991 37.7837 27.2768 37.8552 27.2321C37.9267 27.1874 37.9848 27.1292 38.0295 27.0577C38.0742 26.9832 38.0966 26.9027 38.0966 26.8163C38.0966 26.7269 38.0742 26.6464 38.0295 26.5749C37.9848 26.5034 37.9267 26.4468 37.8552 26.405C37.7837 26.3603 37.7032 26.338 37.6138 26.338C37.5274 26.338 37.4469 26.3603 37.3724 26.405C37.3008 26.4468 37.2427 26.5034 37.198 26.5749C37.1533 26.6464 37.131 26.7269 37.131 26.8163C37.131 26.9027 37.1533 26.9832 37.198 27.0577C37.2427 27.1292 37.3008 27.1874 37.3724 27.2321C37.4469 27.2768 37.5274 27.2991 37.6138 27.2991Z" fill="url(#paint0_linear_8426_116)"/>
</g>
<g filter="url(#filter2_d_8426_116)">
<path d="M27.5721 28.1121C27.1184 28.3727 26.5605 28.3727 26.1068 28.1121C25.6502 27.8498 25.3687 27.3563 25.3687 26.8297C25.3687 26.3031 25.6502 25.8097 26.1068 25.5473C26.5605 25.2867 27.1184 25.2867 27.5721 25.5473C28.0287 25.8097 28.3102 26.3031 28.3102 26.8297C28.3102 27.3563 28.0287 27.8498 27.5721 28.1121ZM26.3206 27.7005C26.6394 27.8879 27.0395 27.8879 27.3583 27.7005C27.6669 27.5192 27.8587 27.1866 27.8587 26.8286C27.8587 26.4718 27.6682 26.1402 27.3611 25.9584C27.0409 25.7688 26.638 25.7688 26.3177 25.9584C26.0107 26.1402 25.8202 26.4718 25.8202 26.8286C25.8202 27.1866 26.012 27.5192 26.3206 27.7005ZM26.835 27.6836C26.674 27.6836 26.528 27.6448 26.3969 27.5674C26.2657 27.4899 26.1614 27.3856 26.0839 27.2544C26.0064 27.1203 25.9677 26.9743 25.9677 26.8163C25.9677 26.6584 26.0064 26.5138 26.0839 26.3827C26.1614 26.2515 26.2657 26.1472 26.3969 26.0697C26.528 25.9893 26.674 25.949 26.835 25.949C26.9929 25.949 27.1375 25.9893 27.2686 26.0697C27.3997 26.1472 27.5041 26.2515 27.5815 26.3827C27.662 26.5138 27.7023 26.6584 27.7023 26.8163C27.7023 26.9743 27.6635 27.1188 27.586 27.2499C27.5085 27.3811 27.4042 27.4869 27.2731 27.5674C27.1419 27.6448 26.9959 27.6836 26.835 27.6836ZM26.835 27.2991C26.9244 27.2991 27.0049 27.2768 27.0764 27.2321C27.1479 27.1874 27.206 27.1292 27.2507 27.0577C27.2954 26.9832 27.3178 26.9027 27.3178 26.8163C27.3178 26.7269 27.2954 26.6464 27.2507 26.5749C27.206 26.5034 27.1479 26.4468 27.0764 26.405C27.0049 26.3603 26.9244 26.338 26.835 26.338C26.7485 26.338 26.6681 26.3603 26.5936 26.405C26.522 26.4468 26.4639 26.5034 26.4192 26.5749C26.3745 26.6464 26.3522 26.7269 26.3522 26.8163C26.3522 26.9027 26.3745 26.9832 26.4192 27.0577C26.4639 27.1292 26.522 27.1874 26.5936 27.2321C26.6681 27.2768 26.7485 27.2991 26.835 27.2991Z" fill="url(#paint1_linear_8426_116)"/>
</g>
<defs>
<filter id="filter0_d_8426_116" x="0.841797" y="0.700439" width="63.1582" height="61" filterUnits="userSpaceOnUse" color-interpolation-filters="sRGB">
<feFlood flood-opacity="0" result="BackgroundImageFix"/>
<feColorMatrix in="SourceAlpha" type="matrix" values="0 0 0 0 0 0 0 0 0 0 0 0 0 0 0 0 0 0 127 0" result="hardAlpha"/>
<feOffset dy="4"/>
<feGaussianBlur stdDeviation="8.5"/>
<feComposite in2="hardAlpha" operator="out"/>
<feColorMatrix type="matrix" values="0 0 0 0 0 0 0 0 0 0 0 0 0 0 0 0 0 0 0.25 0"/>
<feBlend mode="normal" in2="BackgroundImageFix" result="effect1_dropShadow_8426_116"/>
<feBlend mode="normal" in="SourceGraphic" in2="effect1_dropShadow_8426_116" result="shape"/>
</filter>
<filter id="filter1_d_8426_116" x="27.576" y="18.9232" width="20.0845" height="20.0987" filterUnits="userSpaceOnUse" color-interpolation-filters="sRGB">
<feFlood flood-opacity="0" result="BackgroundImageFix"/>
<feColorMatrix in="SourceAlpha" type="matrix" values="0 0 0 0 0 0 0 0 0 0 0 0 0 0 0 0 0 0 127 0" result="hardAlpha"/>
<feOffset dy="2.14286"/>
<feGaussianBlur stdDeviation="4.28571"/>
<feComposite in2="hardAlpha" operator="out"/>
<feColorMatrix type="matrix" values="0 0 0 0 0 0 0 0 0 0.858333 0 0 0 0 0.0102183 0 0 0 1 0"/>
<feBlend mode="normal" in2="BackgroundImageFix" result="effect1_dropShadow_8426_116"/>
<feBlend mode="normal" in="SourceGraphic" in2="effect1_dropShadow_8426_116" result="shape"/>
</filter>
<filter id="filter2_d_8426_116" x="16.7972" y="18.9232" width="20.0845" height="20.0987" filterUnits="userSpaceOnUse" color-interpolation-filters="sRGB">
<feFlood flood-opacity="0" result="BackgroundImageFix"/>
<feColorMatrix in="SourceAlpha" type="matrix" values="0 0 0 0 0 0 0 0 0 0 0 0 0 0 0 0 0 0 127 0" result="hardAlpha"/>
<feOffset dy="2.14286"/>
<feGaussianBlur stdDeviation="4.28571"/>
<feComposite in2="hardAlpha" operator="out"/>
<feColorMatrix type="matrix" values="0 0 0 0 0 0 0 0 0 0.858333 0 0 0 0 0.0102183 0 0 0 1 0"/>
<feBlend mode="normal" in2="BackgroundImageFix" result="effect1_dropShadow_8426_116"/>
<feBlend mode="normal" in="SourceGraphic" in2="effect1_dropShadow_8426_116" result="shape"/>
</filter>
<linearGradient id="paint0_linear_8426_116" x1="37.6179" y1="24.0885" x2="37.6179" y2="29.6518" gradientUnits="userSpaceOnUse">
<stop stop-color="#57E75C"/>
<stop offset="1" stop-color="#66FF81"/>
</linearGradient>
<linearGradient id="paint1_linear_8426_116" x1="26.8391" y1="24.0885" x2="26.8391" y2="29.6518" gradientUnits="userSpaceOnUse">
<stop stop-color="#57E75C"/>
<stop offset="1" stop-color="#66FF81"/>
</linearGradient>
</defs>
</svg>
